<svg xmlns="http://www.w3.org/2000/svg" width="1240" height="1480" viewBox="0 0 1240 1480" font-family="monospace">
<defs><marker id="ah" markerWidth="10" markerHeight="10" refX="8" refY="3" orient="auto" markerUnits="strokeWidth"><path d="M0,0 L8,3 L0,6 z" fill="#9fb0c0"/></marker></defs>
<rect width="1240" height="1480" fill="#0b0e13"/>
<text x="620.0" y="30" fill="#e8edf2" font-size="20" font-weight="700" text-anchor="middle">Écosystème — infrastructure &amp; connexions</text>
<rect x="40" y="46" width="1160" height="52" rx="12" fill="none" stroke="#3a4250" stroke-width="1.4" stroke-dasharray="5 4" opacity="0.75"/>
<text x="52" y="66" fill="#3a4250" font-size="13" font-weight="700" font-family="monospace">DÉPLOIEMENT</text>
<rect x="70" y="60" width="250" height="30" rx="9" fill="#2b313c" stroke="#3a4250" stroke-width="2"/>
<text x="195.0" y="68.0" fill="#e8edf2" font-size="12" font-weight="600" text-anchor="middle" font-family="monospace">VPS</text>
<text x="195.0" y="88.0" fill="#aab4c0" font-size="10.5" text-anchor="middle" font-family="monospace">principal</text>
<rect x="355" y="60" width="250" height="30" rx="9" fill="#2b313c" stroke="#3a4250" stroke-width="2"/>
<text x="480.0" y="68.0" fill="#e8edf2" font-size="12" font-weight="600" text-anchor="middle" font-family="monospace">Termux</text>
<text x="480.0" y="88.0" fill="#aab4c0" font-size="10.5" text-anchor="middle" font-family="monospace">signaux</text>
<rect x="640" y="60" width="250" height="30" rx="9" fill="#2b313c" stroke="#3a4250" stroke-width="2"/>
<text x="765.0" y="68.0" fill="#e8edf2" font-size="12" font-weight="600" text-anchor="middle" font-family="monospace">PC + Drive Desktop</text>
<text x="765.0" y="88.0" fill="#aab4c0" font-size="10.5" text-anchor="middle" font-family="monospace">G:\</text>
<rect x="925" y="60" width="250" height="30" rx="9" fill="#2b313c" stroke="#3a4250" stroke-width="2"/>
<text x="1050.0" y="68.0" fill="#e8edf2" font-size="12" font-weight="600" text-anchor="middle" font-family="monospace">MCP</text>
<text x="1050.0" y="88.0" fill="#aab4c0" font-size="10.5" text-anchor="middle" font-family="monospace">analyse</text>
<rect x="40" y="120" width="560" height="150" rx="12" fill="none" stroke="#2f6db0" stroke-width="1.4" stroke-dasharray="5 4" opacity="0.75"/>
<text x="52" y="140" fill="#2f6db0" font-size="13" font-weight="700" font-family="monospace">SOURCES (perception)</text>
<rect x="60" y="150" width="165" height="40" rx="9" fill="#16314f" stroke="#2f6db0" stroke-width="2"/>
<text x="142.5" y="170.0" fill="#e8edf2" font-size="11" font-weight="600" text-anchor="middle" font-family="monospace">Bitget REST</text>
<rect x="240" y="150" width="165" height="40" rx="9" fill="#16314f" stroke="#2f6db0" stroke-width="2"/>
<text x="322.5" y="170.0" fill="#e8edf2" font-size="11" font-weight="600" text-anchor="middle" font-family="monospace">CoinGecko (repli)</text>
<rect x="420" y="150" width="165" height="40" rx="9" fill="#16314f" stroke="#2f6db0" stroke-width="2"/>
<text x="502.5" y="170.0" fill="#e8edf2" font-size="11" font-weight="600" text-anchor="middle" font-family="monospace">yfinance / FRED</text>
<rect x="60" y="202" width="165" height="40" rx="9" fill="#16314f" stroke="#2f6db0" stroke-width="2"/>
<text x="142.5" y="222.0" fill="#e8edf2" font-size="11" font-weight="600" text-anchor="middle" font-family="monospace">Fear &amp; Greed</text>
<rect x="240" y="202" width="165" height="40" rx="9" fill="#16314f" stroke="#2f6db0" stroke-width="2"/>
<text x="322.5" y="222.0" fill="#e8edf2" font-size="11" font-weight="600" text-anchor="middle" font-family="monospace">funding agrégé</text>
<rect x="420" y="202" width="165" height="40" rx="9" fill="#16314f" stroke="#2f6db0" stroke-width="2"/>
<text x="502.5" y="222.0" fill="#e8edf2" font-size="11" font-weight="600" text-anchor="middle" font-family="monospace">liquidations</text>
<rect x="650" y="120" width="550" height="230" rx="12" fill="none" stroke="#e0a52a" stroke-width="1.4" stroke-dasharray="5 4" opacity="0.75"/>
<text x="662" y="140" fill="#e0a52a" font-size="13" font-weight="700" font-family="monospace">CONNAISSANCE</text>
<rect x="680" y="175" width="220" height="44" rx="9" fill="#3a2f10" stroke="#e0a52a" stroke-width="2"/>
<text x="790.0" y="190.0" fill="#e8edf2" font-size="14" font-weight="600" text-anchor="middle" font-family="monospace">Drive package/ (trié)</text>
<text x="790.0" y="210.0" fill="#aab4c0" font-size="10.5" text-anchor="middle" font-family="monospace">tri + analyse (off-repo)</text>
<rect x="940" y="150" width="230" height="40" rx="9" fill="#3a2f10" stroke="#e0a52a" stroke-width="2"/>
<text x="1055.0" y="163.0" fill="#e8edf2" font-size="14" font-weight="600" text-anchor="middle" font-family="monospace">knowledge_base.py</text>
<text x="1055.0" y="183.0" fill="#aab4c0" font-size="10.5" text-anchor="middle" font-family="monospace">build / query</text>
<rect x="940" y="215" width="230" height="46" rx="9" fill="#3a2f10" stroke="#e0a52a" stroke-width="2"/>
<text x="1055.0" y="231.0" fill="#e8edf2" font-size="14" font-weight="600" text-anchor="middle" font-family="monospace">knowledge.json</text>
<text x="1055.0" y="251.0" fill="#aab4c0" font-size="10.5" text-anchor="middle" font-family="monospace">★ LA BASE (DB)</text>
<rect x="680" y="270" width="490" height="36" rx="9" fill="#3a2f10" stroke="#e0a52a" stroke-width="2"/>
<text x="925.0" y="288.0" fill="#e8edf2" font-size="11" font-weight="600" text-anchor="middle" font-family="monospace">agents &amp; strategy_lab : kb.rules_for(...)</text>
<line x1="900" y1="197" x2="940" y2="180" stroke="#9fb0c0" stroke-width="2" marker-end="url(#ah)"/>
<line x1="1055" y1="190" x2="1055" y2="215" stroke="#9fb0c0" stroke-width="2" marker-end="url(#ah)"/>
<rect x="160" y="300" width="220" height="42" rx="9" fill="#0f3b3a" stroke="#1f9b96" stroke-width="2"/>
<text x="270.0" y="314.0" fill="#e8edf2" font-size="14" font-weight="600" text-anchor="middle" font-family="monospace">market_sources.py</text>
<text x="270.0" y="334.0" fill="#aab4c0" font-size="10.5" text-anchor="middle" font-family="monospace">Bitget→CoinGecko</text>
<rect x="160" y="372" width="220" height="46" rx="9" fill="#0f3b3a" stroke="#1f9b96" stroke-width="2"/>
<text x="270.0" y="388.0" fill="#e8edf2" font-size="14" font-weight="600" text-anchor="middle" font-family="monospace">runtime_cache.py</text>
<text x="270.0" y="408.0" fill="#aab4c0" font-size="10.5" text-anchor="middle" font-family="monospace">TTL + stale-while-error</text>
<line x1="270" y1="270" x2="270" y2="300" stroke="#9fb0c0" stroke-width="2" marker-end="url(#ah)"/>
<line x1="270" y1="342" x2="270" y2="372" stroke="#9fb0c0" stroke-width="2" marker-end="url(#ah)"/>
<rect x="650" y="372" width="550" height="132" rx="12" fill="none" stroke="#8a5cf0" stroke-width="1.4" stroke-dasharray="5 4" opacity="0.75"/>
<text x="662" y="392" fill="#8a5cf0" font-size="13" font-weight="700" font-family="monospace">PRIMITIVES / indicateurs (analystes)</text>
<rect x="670" y="402" width="165" height="38" rx="9" fill="#2e1f4a" stroke="#8a5cf0" stroke-width="2"/>
<text x="752.5" y="421.0" fill="#e8edf2" font-size="11" font-weight="600" text-anchor="middle" font-family="monospace">indicators</text>
<rect x="848" y="402" width="165" height="38" rx="9" fill="#2e1f4a" stroke="#8a5cf0" stroke-width="2"/>
<text x="930.5" y="421.0" fill="#e8edf2" font-size="11" font-weight="600" text-anchor="middle" font-family="monospace">pro_indicators</text>
<rect x="1026" y="402" width="165" height="38" rx="9" fill="#2e1f4a" stroke="#8a5cf0" stroke-width="2"/>
<text x="1108.5" y="421.0" fill="#e8edf2" font-size="11" font-weight="600" text-anchor="middle" font-family="monospace">price_action</text>
<rect x="670" y="452" width="165" height="38" rx="9" fill="#2e1f4a" stroke="#8a5cf0" stroke-width="2"/>
<text x="752.5" y="471.0" fill="#e8edf2" font-size="11" font-weight="600" text-anchor="middle" font-family="monospace">regime_features</text>
<rect x="848" y="452" width="165" height="38" rx="9" fill="#2e1f4a" stroke="#8a5cf0" stroke-width="2"/>
<text x="930.5" y="471.0" fill="#e8edf2" font-size="11" font-weight="600" text-anchor="middle" font-family="monospace">black_scholes</text>
<rect x="1026" y="452" width="165" height="38" rx="9" fill="#2e1f4a" stroke="#8a5cf0" stroke-width="2"/>
<text x="1108.5" y="471.0" fill="#e8edf2" font-size="11" font-weight="600" text-anchor="middle" font-family="monospace">(VP, FVG, BOS…)</text>
<rect x="120" y="470" width="470" height="250" rx="12" fill="none" stroke="#2ec27e" stroke-width="1.4" stroke-dasharray="5 4" opacity="0.75"/>
<text x="132" y="490" fill="#2ec27e" font-size="13" font-weight="700" font-family="monospace">CERVEAU — swarm_brain.py (mixture of experts)</text>
<rect x="140" y="500" width="430" height="40" rx="9" fill="#0f3320" stroke="#2ec27e" stroke-width="2"/>
<text x="355.0" y="513.0" fill="#e8edf2" font-size="12" font-weight="600" text-anchor="middle" font-family="monospace">8 agents</text>
<text x="355.0" y="533.0" fill="#aab4c0" font-size="10.5" text-anchor="middle" font-family="monospace">orderflow·technicals·macro·sentiment·derivs·liq·divergent·structure</text>
<rect x="140" y="552" width="200" height="44" rx="9" fill="#0f3320" stroke="#2ec27e" stroke-width="2"/>
<text x="240.0" y="567.0" fill="#e8edf2" font-size="14" font-weight="600" text-anchor="middle" font-family="monospace">aggregate</text>
<text x="240.0" y="587.0" fill="#aab4c0" font-size="10.5" text-anchor="middle" font-family="monospace">consensus / biais</text>
<rect x="370" y="552" width="200" height="44" rx="9" fill="#0f3320" stroke="#2ec27e" stroke-width="2"/>
<text x="470.0" y="567.0" fill="#e8edf2" font-size="14" font-weight="600" text-anchor="middle" font-family="monospace">cognition + CVIX</text>
<text x="470.0" y="587.0" fill="#aab4c0" font-size="10.5" text-anchor="middle" font-family="monospace">prudence</text>
<rect x="140" y="612" width="200" height="44" rx="9" fill="#0f3320" stroke="#2ec27e" stroke-width="2"/>
<text x="240.0" y="627.0" fill="#e8edf2" font-size="14" font-weight="600" text-anchor="middle" font-family="monospace">learn() → EARCP</text>
<text x="240.0" y="647.0" fill="#aab4c0" font-size="10.5" text-anchor="middle" font-family="monospace">perf + cohérence</text>
<rect x="370" y="612" width="200" height="44" rx="9" fill="#0f3320" stroke="#2ec27e" stroke-width="2"/>
<text x="470.0" y="627.0" fill="#e8edf2" font-size="14" font-weight="600" text-anchor="middle" font-family="monospace">brain_weights.json</text>
<text x="470.0" y="647.0" fill="#aab4c0" font-size="10.5" text-anchor="middle" font-family="monospace">POIDS appris</text>
<rect x="140" y="672" width="430" height="34" rx="9" fill="#0f3320" stroke="#2ec27e" stroke-width="2"/>
<text x="355.0" y="689.0" fill="#e8edf2" font-size="12" font-weight="600" text-anchor="middle" font-family="monospace">→ conviction ajustée (advisory)</text>
<line x1="355" y1="540" x2="240" y2="552" stroke="#9fb0c0" stroke-width="2" marker-end="url(#ah)"/>
<line x1="355" y1="540" x2="470" y2="552" stroke="#9fb0c0" stroke-width="2" marker-end="url(#ah)"/>
<line x1="240" y1="596" x2="240" y2="612" stroke="#9fb0c0" stroke-width="2" marker-end="url(#ah)"/>
<line x1="340" y1="634" x2="370" y2="634" stroke="#9fb0c0" stroke-width="2" marker-end="url(#ah)"/>
<line x1="240" y1="656" x2="240" y2="672" stroke="#9fb0c0" stroke-width="2" marker-end="url(#ah)"/>
<line x1="470" y1="596" x2="470" y2="612" stroke="#9fb0c0" stroke-width="2" marker-end="url(#ah)"/>
<line x1="270" y1="418" x2="270" y2="500" stroke="#9fb0c0" stroke-width="2" marker-end="url(#ah)"/>
<text x="270.0" y="454.0" fill="#cdd6e0" font-size="10" text-anchor="middle" font-family="monospace">features</text>
<line x1="820" y1="504" x2="560" y2="520" stroke="#9fb0c0" stroke-width="2" stroke-dasharray="6 5" marker-end="url(#ah)"/>
<line x1="1055" y1="256" x2="1055" y2="300" stroke="#9fb0c0" stroke-width="2" marker-end="url(#ah)"/>
<line x1="1055" y1="300" x2="590" y2="470" stroke="#9fb0c0" stroke-width="2" stroke-dasharray="6 5" marker-end="url(#ah)"/>
<text x="822.5" y="380.0" fill="#cdd6e0" font-size="10" text-anchor="middle" font-family="monospace">rules_for()</text>
<rect x="370" y="730" width="200" height="34" rx="9" fill="#0f3320" stroke="#2ec27e" stroke-width="2"/>
<text x="470.0" y="740.0" fill="#e8edf2" font-size="11" font-weight="600" text-anchor="middle" font-family="monospace">brain_log.json</text>
<text x="470.0" y="760.0" fill="#aab4c0" font-size="10.5" text-anchor="middle" font-family="monospace">journal</text>
<line x1="240" y1="706" x2="240" y2="745" stroke="#9fb0c0" stroke-width="2" marker-end="url(#ah)"/>
<line x1="370" y1="747" x2="340" y2="706" stroke="#9fb0c0" stroke-width="2" stroke-dasharray="6 5" marker-end="url(#ah)"/>
<text x="355.0" y="721.5" fill="#cdd6e0" font-size="10" text-anchor="middle" font-family="monospace">learn</text>
<rect x="40" y="800" width="360" height="150" rx="12" fill="none" stroke="#4ea1ff" stroke-width="1.4" stroke-dasharray="5 4" opacity="0.75"/>
<text x="52" y="820" fill="#4ea1ff" font-size="13" font-weight="700" font-family="monospace">DASHBOARD (lecture seule)</text>
<rect x="60" y="832" width="320" height="44" rx="9" fill="#152a3a" stroke="#4ea1ff" stroke-width="2"/>
<text x="220.0" y="847.0" fill="#e8edf2" font-size="14" font-weight="600" text-anchor="middle" font-family="monospace">TradingView charts</text>
<text x="220.0" y="867.0" fill="#aab4c0" font-size="10.5" text-anchor="middle" font-family="monospace">marqueur conscience</text>
<rect x="60" y="888" width="320" height="44" rx="9" fill="#152a3a" stroke="#4ea1ff" stroke-width="2"/>
<text x="220.0" y="903.0" fill="#e8edf2" font-size="14" font-weight="600" text-anchor="middle" font-family="monospace">bandes CVIX · aimants liq</text>
<text x="220.0" y="923.0" fill="#aab4c0" font-size="10.5" text-anchor="middle" font-family="monospace">multi-timeframe</text>
<line x1="200" y1="706" x2="200" y2="800" stroke="#9fb0c0" stroke-width="2" marker-end="url(#ah)"/>
<text x="200.0" y="748.0" fill="#cdd6e0" font-size="10" text-anchor="middle" font-family="monospace">advisory</text>
<rect x="650" y="540" width="550" height="210" rx="12" fill="none" stroke="#f0922a" stroke-width="1.4" stroke-dasharray="5 4" opacity="0.75"/>
<text x="662" y="560" fill="#f0922a" font-size="13" font-weight="700" font-family="monospace">RECHERCHE / LABORATOIRE</text>
<rect x="680" y="572" width="230" height="44" rx="9" fill="#3a230f" stroke="#f0922a" stroke-width="2"/>
<text x="795.0" y="587.0" fill="#e8edf2" font-size="14" font-weight="600" text-anchor="middle" font-family="monospace">backtest_brain</text>
<text x="795.0" y="607.0" fill="#aab4c0" font-size="10.5" text-anchor="middle" font-family="monospace">evaluate · WF · PBO</text>
<rect x="940" y="572" width="230" height="44" rx="9" fill="#3a230f" stroke="#f0922a" stroke-width="2"/>
<text x="1055.0" y="587.0" fill="#e8edf2" font-size="14" font-weight="600" text-anchor="middle" font-family="monospace">strategy_lab.py</text>
<text x="1055.0" y="607.0" fill="#aab4c0" font-size="10.5" text-anchor="middle" font-family="monospace">agent AUTONOME</text>
<rect x="680" y="632" width="490" height="44" rx="9" fill="#3a230f" stroke="#f0922a" stroke-width="2"/>
<text x="925.0" y="647.0" fill="#e8edf2" font-size="11" font-weight="600" text-anchor="middle" font-family="monospace">stratégies pures/causales + compose + améliore</text>
<text x="925.0" y="667.0" fill="#aab4c0" font-size="10.5" text-anchor="middle" font-family="monospace">(ema·rsi·donchian·VP·structure·ensembles)</text>
<rect x="680" y="692" width="490" height="40" rx="9" fill="#3a230f" stroke="#f0922a" stroke-width="2"/>
<text x="925.0" y="705.0" fill="#e8edf2" font-size="14" font-weight="600" text-anchor="middle" font-family="monospace">strategies_out/</text>
<text x="925.0" y="725.0" fill="#aab4c0" font-size="10.5" text-anchor="middle" font-family="monospace">★ rapport .md + code prêt à l'emploi .py</text>
<line x1="910" y1="594" x2="940" y2="594" stroke="#9fb0c0" stroke-width="2" marker-end="url(#ah)"/>
<line x1="820" y1="616" x2="820" y2="632" stroke="#9fb0c0" stroke-width="2" marker-end="url(#ah)"/>
<line x1="925" y1="676" x2="925" y2="692" stroke="#9fb0c0" stroke-width="2" marker-end="url(#ah)"/>
<line x1="820" y1="504" x2="820" y2="540" stroke="#9fb0c0" stroke-width="2" stroke-dasharray="6 5" marker-end="url(#ah)"/>
<line x1="1100" y1="256" x2="1100" y2="540" stroke="#9fb0c0" stroke-width="2" stroke-dasharray="6 5" marker-end="url(#ah)"/>
<text x="1100.0" y="393.0" fill="#cdd6e0" font-size="10" text-anchor="middle" font-family="monospace">KB</text>
<rect x="120" y="1000" width="700" height="150" rx="12" fill="none" stroke="#f5566b" stroke-width="1.4" stroke-dasharray="5 4" opacity="0.75"/>
<text x="132" y="1020" fill="#f5566b" font-size="13" font-weight="700" font-family="monospace">RISQUE (FIGÉ : config/env — jamais appris)</text>
<rect x="140" y="1032" width="320" height="44" rx="9" fill="#3a1418" stroke="#f5566b" stroke-width="2"/>
<text x="300.0" y="1047.0" fill="#e8edf2" font-size="14" font-weight="600" text-anchor="middle" font-family="monospace">risk_manager</text>
<text x="300.0" y="1067.0" fill="#aab4c0" font-size="10.5" text-anchor="middle" font-family="monospace">kill-switch · caps · perte j.</text>
<rect x="480" y="1032" width="320" height="44" rx="9" fill="#3a1418" stroke="#f5566b" stroke-width="2"/>
<text x="640.0" y="1047.0" fill="#e8edf2" font-size="14" font-weight="600" text-anchor="middle" font-family="monospace">risk_limits</text>
<text x="640.0" y="1067.0" fill="#aab4c0" font-size="10.5" text-anchor="middle" font-family="monospace">caps portefeuille</text>
<rect x="140" y="1090" width="320" height="44" rx="9" fill="#3a1418" stroke="#f5566b" stroke-width="2"/>
<text x="300.0" y="1105.0" fill="#e8edf2" font-size="14" font-weight="600" text-anchor="middle" font-family="monospace">position_sizer</text>
<text x="300.0" y="1125.0" fill="#aab4c0" font-size="10.5" text-anchor="middle" font-family="monospace">stop ≥ k·ATR</text>
<rect x="480" y="1090" width="320" height="44" rx="9" fill="#3a1418" stroke="#f5566b" stroke-width="2"/>
<text x="640.0" y="1105.0" fill="#e8edf2" font-size="14" font-weight="600" text-anchor="middle" font-family="monospace">risk_profiles</text>
<text x="640.0" y="1125.0" fill="#aab4c0" font-size="10.5" text-anchor="middle" font-family="monospace">agressivité · anti-martingale</text>
<line x1="240" y1="706" x2="460" y2="1000" stroke="#9fb0c0" stroke-width="2" stroke-dasharray="6 5" marker-end="url(#ah)"/>
<rect x="860" y="1000" width="340" height="150" rx="12" fill="none" stroke="#6b7686" stroke-width="1.4" stroke-dasharray="5 4" opacity="0.75"/>
<text x="872" y="1020" fill="#6b7686" font-size="13" font-weight="700" font-family="monospace">GARDE-FOUS CODE</text>
<rect x="880" y="1032" width="300" height="44" rx="9" fill="#1d2430" stroke="#6b7686" stroke-width="2"/>
<text x="1030.0" y="1047.0" fill="#e8edf2" font-size="14" font-weight="600" text-anchor="middle" font-family="monospace">security_agent.py</text>
<text x="1030.0" y="1067.0" fill="#aab4c0" font-size="10.5" text-anchor="middle" font-family="monospace">SAFE / RISKY</text>
<rect x="880" y="1090" width="300" height="44" rx="9" fill="#1d2430" stroke="#6b7686" stroke-width="2"/>
<text x="1030.0" y="1105.0" fill="#e8edf2" font-size="14" font-weight="600" text-anchor="middle" font-family="monospace">safe_push_check.sh</text>
<text x="1030.0" y="1125.0" fill="#aab4c0" font-size="10.5" text-anchor="middle" font-family="monospace">avant push</text>
<rect x="120" y="1200" width="700" height="56" rx="9" fill="#2a0f12" stroke="#c0303d" stroke-width="2"/>
<text x="470.0" y="1221.0" fill="#e8edf2" font-size="13" font-weight="600" text-anchor="middle" font-family="monospace">PIPELINE D'ORDRES (paper / dry-run)</text>
<text x="470.0" y="1241.0" fill="#aab4c0" font-size="10.5" text-anchor="middle" font-family="monospace">order_signal_engine → preorder → execution_gateway   ·   AUCUN ordre réel par défaut</text>
<line x1="470" y1="1150" x2="470" y2="1200" stroke="#9fb0c0" stroke-width="2" marker-end="url(#ah)"/>
<text x="470.0" y="1170.0" fill="#cdd6e0" font-size="10" text-anchor="middle" font-family="monospace">OUI / NON</text>
<text x="60" y="1310" fill="#2ec27e" font-size="12">🔒 Apprentissage = POIDS seulement (jamais le risque, figé en config/env)</text>
<text x="60" y="1332" fill="#f5566b" font-size="12">🔒 Aucun ordre réel par défaut — tout est advisory / paper / dry-run, la couche risque dit OUI</text>
<text x="60" y="1354" fill="#6b7686" font-size="12">🔒 security_agent + safe_push_check gardent le CODE avant chaque push</text>
<text x="60" y="1392" fill="#7f8a98" font-size="11">— flèche pleine = flux de données · flèche pointillée = consultation/contrôle —</text>
</svg>